<svg width="152" height="56" viewBox="0 0 152 56" fill="none" xmlns="http://www.w3.org/2000/svg">
<path d="M77.8505 20.4412V16.1133H96.3909V20.4412H77.8505ZM77.8505 29.9287V25.6008H93.73V29.9287H77.8505ZM77.8505 35.0883H96.3936V39.4162H77.8505V35.0883Z" fill="#7F28FF"/>
<path d="M116.874 16.1142V29.8857C116.874 33.4796 114.923 35.0865 111.084 35.0865C107.235 35.0865 105.283 33.4796 105.283 29.8857V16.1142H100.836V29.0782C100.836 36.2301 103.995 39.4162 111.084 39.4162C118.181 39.4162 121.349 36.2301 121.349 29.0782V16.1142H116.874Z" fill="#7F28FF"/>
<path d="M57.7615 35.0874L72.5153 24.5558L72.5171 16.116H54.5467V20.4466H70.505L54.5449 32.2293V39.4162H72.5153V35.0874H57.7615Z" fill="#7F28FF"/>
<path d="M129.009 35.0874L143.763 24.5558L143.765 16.116H125.794V20.4466H141.752L125.793 32.2293V39.4162H143.763V35.0874H129.009Z" fill="#7F28FF"/>
<path d="M40.2832 31.8292H38.4124V35.3389H40.2485C40.9415 35.3389 41.5616 35.7031 41.8677 36.2896C42.67 37.8182 42.5408 39.7611 41.5312 41.3598C40.5781 42.8685 39.0377 43.7215 37.3647 43.6393H17.5606C15.8043 43.6384 14.056 42.6446 13.224 41.0639C11.4769 37.4034 13.9214 34.2956 16.6881 31.6718C17.1539 31.2306 17.6049 30.8024 18.0073 30.3906L30.8035 17.6281C31.3066 17.116 31.8252 17.116 32.1773 17.2085C32.7636 17.3634 33.2797 17.8816 33.4332 18.4681C33.5243 18.815 33.526 19.3323 33.0134 19.8297L21.8252 30.9918C20.1001 32.5204 16.5112 35.7005 19.1018 39.4739C19.9067 40.7093 21.2588 41.5017 22.8078 41.647C24.3404 41.7993 25.8122 41.269 26.82 40.2188C28.6734 38.3649 31.5511 35.498 34.4861 32.5723C37.8226 29.2496 41.2329 25.1577 43.2702 23.117C44.9319 21.4525 45.9744 19.4724 46.0482 17.0494C46.1202 14.6297 45.2416 12.3632 43.6518 10.8459C42.0872 9.24375 39.9944 8.33542 37.7498 8.28525H17.4288C14.5676 8.27227 12.1001 9.66072 10.5519 12.1374C8.91012 14.7638 8.69329 18.1342 9.99859 20.7259C10.8789 22.4786 12.7532 23.611 14.7722 23.611H16.6777V20.1022H14.8442C14.1556 20.1022 13.5363 19.7389 13.2267 19.1558C12.4201 17.635 12.5441 15.6946 13.5502 14.0942C14.5042 12.5778 16.0671 11.7274 17.7245 11.8009L37.6596 11.8001C40.0127 12.0289 41.2607 13.2768 42.0094 14.7744C42.5918 16.1887 42.7582 18.6013 40.8447 20.598C38.9312 22.5947 24.3967 37.8087 24.3967 37.8087C23.8937 38.326 23.3777 38.3234 23.029 38.2334C22.4392 38.0786 21.9206 37.5578 21.7662 36.9678C21.6751 36.6209 21.6751 36.1044 22.1842 35.6148C22.258 35.5447 33.5503 24.3619 35.4748 22.3099C37.5269 20.3133 37.2155 17.667 35.9987 15.9308C34.7784 14.1911 32.3985 12.9861 29.7723 14.2422C29.6734 14.2984 28.7957 14.8062 28.3777 15.2214L11.3455 32.209C9.08445 34.53 8.51203 38.7905 9.88844 41.993C11.2597 45.1843 14.1244 47.1567 17.3742 47.1558H37.6847C39.9172 47.1057 42.01 46.1965 43.559 44.6099C46.1123 42.1834 46.7273 37.9946 45.0195 34.6503C44.1462 32.9365 42.2875 31.8292 40.2832 31.8292Z" fill="url(#paint0_linear_3480_4821)"/>
<defs>
<linearGradient id="paint0_linear_3480_4821" x1="13.7089" y1="10.3459" x2="42.1546" y2="45.6261" gradientUnits="userSpaceOnUse">
<stop offset="0.446753" stop-color="#7F28FF"/>
<stop offset="1" stop-color="#FF29A4"/>
</linearGradient>
</defs>
</svg>
